<svg id="Calque_1" data-name="Calque 1" xmlns="http://www.w3.org/2000/svg" viewBox="0 0 1259.82 798.2"><defs><style>.cls-1{fill:#fff;}</style></defs><title>logo-pepite</title><path class="cls-1" d="M626.8,418.74c9.23-.07,17-7.64,17-16.63,1.38-9.09-9.52-17.24-16.61-17.14-8.48.12-16.46,8.14-16.6,16.83S618.39,418.81,626.8,418.74Z"/><path class="cls-1" d="M370.89,416.49c22.6-6.53,71.48-30.15,73-49.61.3-4-17.68-15.5-23.41-9.11-11,12.26-21.9,22.7-61,35.52C350.47,396.22,364.91,418.22,370.89,416.49Z"/><path class="cls-1" d="M939.22,500.15c-7.33-23.83-17.53-42.95-32.85-66.95a8.47,8.47,0,0,0-5.72-3.35c-6.8-.42-13.65,0-20.47-.24-3.56-.11-5.14,1.46-6.25,4.71C867.91,452,865.7,466,859,483.39c-17.47,45.37-31.06,61.87-37.09,68.8-1.12,1.28-2.27,2.54-3.45,3.76-6.72,6.61-15.07,12.61-24.93,14.82-8.13,1.82-18.78-.18-22.27-7.68a48.31,48.31,0,0,1-4.2-14.71c-.36-3.28.71-4.68,3.61-5.68,4.53-1.55,9-3.26,13.4-5.21,28.41-12.7,48.17-32.21,51.56-64.92,2.87-27.63-16.87-44.94-40.57-41.81-15.48,2-27.42,10.59-36.59,22.81-17.29,23-23.79,49.7-24.28,77.89-.24,13.29-5.38,21.74-13.49,32.11-6.41,8.21-15.34,4.95-16.63-.52a55.35,55.35,0,0,1-.63-18.47c1.82-16.28,4.36-32.49,7-48.66,3-18.54,6.62-37,9.76-55.52.64-3.78,2.5-4.87,6-4.8a169.05,169.05,0,0,0,17.15-.17c2-.16,5-1.74,5.49-3.32a195.53,195.53,0,0,0,4.59-19.34c.81-3.93-1-6-5.09-5.95-4.43,0-8.86,0-13.29,0-8,0-8.85-1.07-7.27-9.19,1.46-7.42,3-14.82,4.37-22.26,1.05-5.72-.09-7.15-5.71-7.27s-11.08.11-16.61-.06c-4.12-.12-6.1,1.88-6.77,5.7-1.6,9.06-3.34,18.09-4.84,27.17-.64,3.89-2.44,6-6.54,5.92-5.54-.08-11.08.07-16.62,0-4-.07-6.24,1.7-6.93,5.61-.92,5.26-1.79,10.54-2.86,15.78-1.37,6.7-.94,7.36,6,7.42,6.39.06,12.78,0,19.5,0-.14,2.26-.08,3.53-.3,4.75-2.29,12.4-4.68,24.78-7,37.17-2.06,5.2-4.14,10.4-6.29,15.57a321.61,321.61,0,0,1-32,58.67,81.16,81.16,0,0,1-13.78,15c-6,5.2-11.54,3.2-13-4.37-2.82-14.51,5.19-52.83,9-73.09,3.08-16.49,7.1-32.8,10.8-49.17,1-4.51-.44-6-5.1-5.7a116.36,116.36,0,0,1-17.11-.29c-4.37-.38-6.75,1.37-7.74,5.28-1.13,4.47-1.83,9-3,13.5-7.24,27.26-14.13,54.61-17.68,82.61-11,52.63-35.9,30.52-35.9,26.58,1.24-2.06,1.19-2,2.33-4.21,8.48-16.3,12.38-33.93,13.52-52.11,1-15.87.91-31.75-5-47-9.21-23.56-30.77-34.35-53.89-24.36-4,1.72-7.86,3.65-11.86,5.52-2.15-7.8-2.22-7.86-9.91-7.9q-5.26,0-10.53,0c-8.19,0-8.88.37-9.45,8.53-.06.9-4.06,29.6-7.47,54,0,0-10.75,34.88-25.89,53.34-8.33,10.16-19.75,18.85-35,21.54-8.2,1.45-18.49-1.2-22-8.7-3.86-8.28-3.66-11.8-4.2-14.7-.6-3.25.71-4.69,3.61-5.68,4.53-1.56,9-3.26,13.4-5.22,28.41-12.7,44.83-30.08,48.22-62.79,2.86-27.63-13.53-47.07-37.23-43.94-15.49,2-27.42,10.6-36.59,22.82-17.29,23-19.1,46.16-19.59,74.35-.23,13.29-8,27.24-19.29,38.57-8,8-16.5,6-21.88.59q2-3.35,3.88-6.91c8.49-16.3,12.39-33.93,13.53-52.11,1-15.87.91-31.75-5-47-9.21-23.56-30.77-34.35-53.89-24.36-4,1.72-7.86,3.65-11.86,5.52-2.15-7.8-2.22-7.86-9.91-7.9q-5.27,0-10.53,0c-8.19,0-8.88.37-9.45,8.53-.1,1.5-11.2,80.51-12.15,87.62-1.87,14.06-3.66,28.13-5.57,42.18-2.49,18.43-5.09,36.85-7.6,55.28-2.29,16.78-4.42,33.58-6.83,50.34-.58,4,1.58,5,4.64,5.11,5.71.18,11.44.14,17.16.09,6.26,0,7.46-1.45,8.2-7.78q4.32-36.79,8.88-73.55a48.72,48.72,0,0,1,1.51-5.77c9.83,5.07,19.6,6.54,29.64,4.56,11.12-2.19,21.86-8,29.57-14.4,8.31,11.32,29.48,19.2,46.69,7.92,5.15-3.37,9.71-7.65,14.64-14.88,1.81,2.4,1.28,1.83,2.43,3.23,6.95,8.44,14.86,15.49,26.29,16.93,19.73,2.49,38.22-4.2,53.46-16.11,1.54-1.2,12-5.73,18.64-12.79-.15,1.07-5.25,38.67-7.76,57.1-2.29,16.78-4.42,33.58-6.83,50.34-.58,4,1.58,5,4.64,5.11,5.72.18,11.44.14,17.16.09,6.26,0,7.46-1.45,8.2-7.78q4.32-36.79,8.88-73.55A48.72,48.72,0,0,1,475,594.2c9.83,5.07,19.47,5.7,29.64,4.56,15.31-1.71,28.25-14.39,28.25-14.39,23.54,24.92,47.28,18,60.34,1.3,10.42,17.06,35.76,21.9,51.41,9.51,10.92-8.65,19.08-19.45,25.84-31.4l1.41-2.53q0,4.31.24,8.58c1.2,21.06,17.2,34.41,37.6,30,7.18-1.53,13.75-4.67,20.82-10.89,3.5-3.08,7.52-7.55,11.1-11.43,1.81,2.4,2.85,3.89,4,5.28,7,8.45,14.86,15.5,26.29,16.94,18,2.27,38.8.37,53-9.66,0,0,17.57-12.76,26.44-25.29,20-28.38,27.81-48.2,36.55-82.77.71-2.77,3.14-14.25,3.82-16.83l1.67-.06c2,4.49,3.26,8,5.21,12.58,7.62,17.78,13.94,37.07,16.7,56.29,1.22,8.54,1.56,16.5-1.56,25.33-2.42,6.86-6.31,11-13.51,9.87a22.6,22.6,0,0,1-10.6-4c-5.58-4.12-15.95-13.37-17.3-13.22-2.19.3-9.89,13.47-12.29,18.87-.48,1.06.37,3.41,1.25,4.77a52.28,52.28,0,0,0,19.94,18.17,43.48,43.48,0,0,0,63.16-28.21C949.6,543.54,945.63,521,939.22,500.15ZM285.86,525.42c-7.68,29.18-23.41,49.73-35.1,45.77-17.3-5.88-9.81-50.34-7.29-59.91,7.68-29.19,23.4-49.68,35.1-45.77S293.54,496.23,285.86,525.42Zm97.5-47.61c3-4.73,6.59-9.53,11-12.82,2.86-2.12,8.08-2.83,11.59-1.86,4.41,1.23,5.47,6.15,5,10.63-1.79,17.11-21.41,36.47-39.4,38.35C372.15,499.16,376.8,488.08,383.36,477.81ZM532,525.42c-7.68,29.18-23.41,49.73-35.1,45.77-17.31-5.88-9.82-50.34-7.3-59.91,7.68-29.19,23.4-49.68,35.11-45.77S539.63,496.23,532,525.42ZM778.21,480c3-4.74,6.58-9.54,11-12.82,2.86-2.13,8.08-2.84,11.59-1.86,4.41,1.22,5.47,6.14,5,10.62-1.79,17.11-21.41,36.48-39.39,38.36C767,501.37,771.64,490.3,778.21,480Z"/><path class="cls-1" d="M990.44,247.1l-.05,0c4-11.27-.38-23.25-10-27.05-9.92-3.9-21.63,2.27-26.16,13.78-.15.39-.26.77-.39,1.16L905.62,357.4c-.16.38-.34.74-.5,1.13-4.52,11.51-.16,24,9.76,27.9s21.63-2.27,26.15-13.78c.08-.2.14-.41.21-.61h0Z"/><path class="cls-1" d="M807.42,236.67h0a19.47,19.47,0,0,0-37.34,11c.09.35.22.68.33,1L800.5,359.27c.08.35.14.7.23,1.05a19.48,19.48,0,1,0,37.59-10.25c-.05-.18-.12-.35-.18-.53l.05,0Z"/><path class="cls-1" d="M1101.14,352.21l0,.05A19.47,19.47,0,0,1,1121,385.75c-.3.19-.62.34-.93.51l-97.41,60.41c-.29.2-.57.42-.87.61a19.48,19.48,0,1,1-20.54-33.11c.16-.1.33-.18.5-.27l0,0Z"/></svg>