<?xml version="1.0" encoding="utf-8"?>
<!-- Generator: Adobe Illustrator 23.0.1, SVG Export Plug-In . SVG Version: 6.00 Build 0)  -->
<svg version="1.1" id="Calque_1" xmlns="http://www.w3.org/2000/svg" xmlns:xlink="http://www.w3.org/1999/xlink" x="0px" y="0px"
	 viewBox="0 0 787.5 797" style="enable-background:new 0 0 787.5 797;" xml:space="preserve">
<style type="text/css">
	.st0{fill:none;stroke:#C4C4C4;stroke-width:30;stroke-linecap:round;stroke-linejoin:round;}
	.st1{fill:#C4C4C4;}
</style>
<title>pepite</title>
<polygon class="st0" points="247.1,334.9 410.3,206.9 410.3,617 248.4,498.3 "/>
<polyline class="st0" points="247.1,334.9 151.1,334.9 151.1,496.5 248.4,496.5 "/>
<path class="st1" d="M655.2,433.5L655.2,433.5c11.1-0.4,20.1-8.2,20.1-17.9c0.1-9.9-9.2-18-20.8-18.1c-0.4,0-0.8,0-1.2,0l-122.6-0.7
	c-0.4,0-0.8-0.1-1.1-0.1c-11.5-0.1-20.9,7.9-21,17.9s9.2,18,20.8,18.1c0.2,0,0.4,0,0.6,0l0,0L655.2,433.5z"/>
<path class="st1" d="M602.8,270.9L602.8,270.9c7.8-6.3,9-17.7,2.7-25.5c-6.1-7.6-17-9-24.8-3.3c-0.3,0.2-0.5,0.4-0.8,0.6l-86,63.3
	c-0.3,0.2-0.6,0.4-0.8,0.5c-8.1,5.9-9.8,17.3-3.8,25.4s17.3,9.8,25.4,3.8l0.4-0.3l0,0L602.8,270.9z"/>
<path class="st1" d="M601.1,565L601.1,565c7.7,6.4,8.8,17.8,2.4,25.5c-6.2,7.4-17.1,8.7-24.8,3c-0.3-0.2-0.5-0.4-0.8-0.6l-85.2-64.4
	c-0.3-0.2-0.5-0.3-0.8-0.6c-8-6-9.6-17.4-3.6-25.4c6-8,17.4-9.6,25.4-3.6l0,0l0.4,0.3l0,0L601.1,565z"/>
</svg>
